<svg id="Layer_1" data-name="Layer 1" xmlns="http://www.w3.org/2000/svg" viewBox="0 0 98.29 24.31"><defs><style>.cls-1{fill:#fff;}</style></defs><title>logo</title><path class="cls-1" d="M43.06,23.53a10.71,10.71,0,0,1,2.09-.18,3.41,3.41,0,0,1,2.44.69,2.09,2.09,0,0,1,.67,1.6,2.21,2.21,0,0,1-1.59,2.15v0a2.12,2.12,0,0,1,1.24,1.7,12.66,12.66,0,0,0,.65,2.32H47.43a11.21,11.21,0,0,1-.56-2c-.25-1.16-.7-1.6-1.69-1.64h-1v3.66H43.06Zm1.09,3.84h1.12c1.16,0,1.9-.64,1.9-1.6s-.79-1.57-1.94-1.58a4.53,4.53,0,0,0-1.08.1Z" transform="translate(-7.28 -7.67)"/><path class="cls-1" d="M59.66,27.54c0,2.91-1.77,4.45-3.92,4.45S52,30.26,52,27.71s1.66-4.43,3.92-4.43S59.66,25,59.66,27.54Zm-6.55.14c0,1.8,1,3.42,2.69,3.42s2.71-1.59,2.71-3.51c0-1.67-.88-3.42-2.69-3.42S53.11,25.83,53.11,27.68Z" transform="translate(-7.28 -7.67)"/><path class="cls-1" d="M70.83,28.14c-.06-1.17-.13-2.59-.12-3.64h0c-.29,1-.64,2-1.06,3.21L68.12,31.8h-.83l-1.36-4c-.4-1.19-.74-2.28-1-3.28h0c0,1.05-.09,2.47-.16,3.73l-.23,3.62h-1l.59-8.44h1.39l1.44,4.08c.35,1,.64,2,.85,2.84h0c.21-.85.51-1.77.89-2.84l1.5-4.08h1.39l.52,8.44H71.05Z" transform="translate(-7.28 -7.67)"/><path class="cls-1" d="M77.81,29.2l-.88,2.65H75.81l2.86-8.44H80l2.88,8.44H81.7l-.9-2.65Zm2.76-.86-.82-2.42c-.19-.55-.32-1.05-.44-1.54h0c-.12.5-.26,1-.42,1.52L78,28.34Z" transform="translate(-7.28 -7.67)"/><path class="cls-1" d="M14,12.61a4.38,4.38,0,0,1-.26,1.47A4.57,4.57,0,0,1,13,15.37a3.77,3.77,0,0,1-1.12.91,3,3,0,0,1-1.43.35A2.44,2.44,0,0,1,8.69,16,2.4,2.4,0,0,1,8,14.19a4,4,0,0,1,.39-1.72,5.9,5.9,0,0,1,1.06-1.56,8.62,8.62,0,0,1,1.58-1.33,11.92,11.92,0,0,1,1.94-1,12.94,12.94,0,0,1,2.14-.66,11,11,0,0,1,2.18-.23,9.5,9.5,0,0,1,1.57.13,4.52,4.52,0,0,1,1.4.42l.41-.16.48-.17.51-.14a3,3,0,0,1,.46-.08l0,.11a3.57,3.57,0,0,0-.84.21,7,7,0,0,0-.78.36,2.4,2.4,0,0,1,1.35,2.2,3.36,3.36,0,0,1-.36,1.61,3.12,3.12,0,0,1-1,1.08,4.1,4.1,0,0,1-1.36.61,6.79,6.79,0,0,1-1.56.18v0a1.88,1.88,0,0,1,.82.61,1.63,1.63,0,0,1,.28,1,3.6,3.6,0,0,1-.17,1c-.11.38-.24.77-.38,1.17s-.27.77-.39,1.13a3,3,0,0,0-.18.9q0,.57.51.57A2.82,2.82,0,0,0,19.39,20a6.27,6.27,0,0,0,1.48-1.13,17.49,17.49,0,0,0,2.58-3.25l.16.07c-.27.43-.6.9-1,1.43a12.79,12.79,0,0,1-1.36,1.61A4.84,4.84,0,0,1,18,20.61a1.54,1.54,0,0,1-1-.3,1.13,1.13,0,0,1-.36-.91,2.94,2.94,0,0,1,.2-.94c.14-.37.29-.75.46-1.14s.31-.78.44-1.17a3.38,3.38,0,0,0,.2-1,1,1,0,0,0-.37-.89,2.73,2.73,0,0,0-.95-.3l.07-.18.38.05.37,0a3.47,3.47,0,0,0,1.42-.29,3.25,3.25,0,0,0,1.09-.8,3.61,3.61,0,0,0,.71-1.18,4.27,4.27,0,0,0,.24-1.44,2.3,2.3,0,0,0-.16-.86,1.58,1.58,0,0,0-.51-.65,5.91,5.91,0,0,0-1.73,1.62c-.55.73-1.11,1.54-1.66,2.44L15.2,15.4A23.43,23.43,0,0,1,13.37,18a9.75,9.75,0,0,1-2,1.9A4.12,4.12,0,0,1,9,20.61a3.06,3.06,0,0,1-.59-.07,1.86,1.86,0,0,1-.54-.22,1.52,1.52,0,0,1-.4-.4,1,1,0,0,1-.16-.56.69.69,0,0,1,.19-.51.73.73,0,0,1,.54-.2.56.56,0,0,1,.4.16.57.57,0,0,1,.15.4.68.68,0,0,1-.13.4.37.37,0,0,1-.37.18.73.73,0,0,0,.37.42,1.5,1.5,0,0,0,.73.19,2.58,2.58,0,0,0,1.74-.72,10.52,10.52,0,0,0,1.59-1.86c.53-.76,1.06-1.6,1.59-2.53s1.09-1.83,1.68-2.71a20.82,20.82,0,0,1,1.94-2.46A7.66,7.66,0,0,1,20,8.4,4.19,4.19,0,0,0,18.69,8a10,10,0,0,0-1.42-.1,9.67,9.67,0,0,0-1.88.19,11.31,11.31,0,0,0-1.94.57,11.51,11.51,0,0,0-1.82.92,7.6,7.6,0,0,0-1.53,1.27,6.14,6.14,0,0,0-1,1.59,4.44,4.44,0,0,0-.39,1.87,2.34,2.34,0,0,0,.48,1.55,1.65,1.65,0,0,0,1.35.57,2.67,2.67,0,0,0,1.37-.36,3.67,3.67,0,0,0,1.05-.91,4.16,4.16,0,0,0,.9-2.54Z" transform="translate(-7.28 -7.67)"/><path class="cls-1" d="M29.58,15.72a11.58,11.58,0,0,1-.67,1,10.57,10.57,0,0,1-.9,1.06c-.34.35-.7.68-1.09,1a8.31,8.31,0,0,1-1.2.87,6.21,6.21,0,0,1-1.25.6,3.65,3.65,0,0,1-1.23.23,1.61,1.61,0,0,1-1.16-.39A1.41,1.41,0,0,1,21.67,19a3.46,3.46,0,0,1,.47-1.64,7.25,7.25,0,0,1,2.8-2.8,3.47,3.47,0,0,1,1.67-.48,1.12,1.12,0,0,1,.7.19.63.63,0,0,1,.24.54,1.09,1.09,0,0,1-.46.82,5.12,5.12,0,0,1-1.13.73,11,11,0,0,1-1.43.59,12.06,12.06,0,0,1-1.35.38,4.45,4.45,0,0,0-.32.8,3.41,3.41,0,0,0-.12.89,2,2,0,0,0,0,.42,1.2,1.2,0,0,0,.15.37.86.86,0,0,0,.26.28.77.77,0,0,0,.42.1A3.35,3.35,0,0,0,25,19.8a9.06,9.06,0,0,0,1.6-1,12.59,12.59,0,0,0,1.57-1.46,11.06,11.06,0,0,0,1.28-1.69Zm-2.88-.94a.46.46,0,0,0-.13-.37.44.44,0,0,0-.33-.13,1.45,1.45,0,0,0-.81.3,5.05,5.05,0,0,0-.86.72,6.87,6.87,0,0,0-.77.94,5.29,5.29,0,0,0-.53.89,6.74,6.74,0,0,0,1-.28,7.66,7.66,0,0,0,1.13-.51,3.91,3.91,0,0,0,.93-.7A1.2,1.2,0,0,0,26.7,14.78Z" transform="translate(-7.28 -7.67)"/><path class="cls-1" d="M35.44,15.74a15.1,15.1,0,0,1-1.23,1.7A11.05,11.05,0,0,1,32.67,19a7.64,7.64,0,0,1-1.82,1.09,5.33,5.33,0,0,1-2.11.42,2.85,2.85,0,0,1-.79-.11A1.88,1.88,0,0,1,27.3,20a1.48,1.48,0,0,1-.45-.54,1.73,1.73,0,0,1-.17-.78,1.26,1.26,0,0,1,.31-.83,1,1,0,0,1,.81-.37.68.68,0,0,1,.44.13.49.49,0,0,1,.17.4.69.69,0,0,1-.13.43.43.43,0,0,1-.37.17.45.45,0,0,1-.31-.1.46.46,0,0,1-.15-.27.58.58,0,0,0-.27.31,1.23,1.23,0,0,0-.07.42,1,1,0,0,0,.47.93,1.86,1.86,0,0,0,1.06.31,1.36,1.36,0,0,0,.65-.15,1.57,1.57,0,0,0,.46-.39,1.71,1.71,0,0,0,.27-.56,2.35,2.35,0,0,0,.09-.64,2.54,2.54,0,0,0-.11-.7c-.08-.24-.17-.48-.26-.72l-.27-.7a2,2,0,0,1-.12-.65,1.47,1.47,0,0,1,.16-.7,1.7,1.7,0,0,1,.43-.53,2.28,2.28,0,0,1,.64-.33,2.55,2.55,0,0,1,.74-.11,2,2,0,0,1,1.16.31,1,1,0,0,1,.44.83.72.72,0,0,1-.35.67,1.44,1.44,0,0,1-.77.21,2.69,2.69,0,0,0,.19-.47,1.92,1.92,0,0,0,.08-.5.89.89,0,0,0-.22-.6.83.83,0,0,0-.64-.24.94.94,0,0,0-.76.31,1.16,1.16,0,0,0-.25.76,2.26,2.26,0,0,0,.13.74,7.55,7.55,0,0,0,.32.72c.1.23.2.48.29.72a2.47,2.47,0,0,1,.13.84,1.51,1.51,0,0,1-.15.65,2,2,0,0,1-.4.57A2.38,2.38,0,0,1,30,20a1.79,1.79,0,0,1-.63.23l0,0a5.19,5.19,0,0,0,1.83-.56,8.41,8.41,0,0,0,1.62-1.1,11.74,11.74,0,0,0,1.4-1.42c.42-.52.8-1,1.12-1.52Z" transform="translate(-7.28 -7.67)"/><path class="cls-1" d="M38.46,12.15l-1.4,2.06h2.35l-.11.21H36.92c-.48.78-.9,1.44-1.27,2s-.69,1-.94,1.46a9.3,9.3,0,0,0-.58,1,1.83,1.83,0,0,0-.2.74.51.51,0,0,0,.23.47,1.08,1.08,0,0,0,.54.13,2.69,2.69,0,0,0,1.41-.49,10.13,10.13,0,0,0,1.54-1.19,19,19,0,0,0,1.45-1.52c.47-.53.86-1,1.18-1.43l.1.07c-.4.51-.84,1-1.32,1.6a18.34,18.34,0,0,1-1.48,1.55A9.14,9.14,0,0,1,36,20a2.9,2.9,0,0,1-1.47.47,1.47,1.47,0,0,1-1-.34,1.19,1.19,0,0,1-.4-.94,2.34,2.34,0,0,1,.23-.92,9.59,9.59,0,0,1,.61-1.09c.25-.39.53-.82.84-1.28s.64-1,1-1.48h-1l.11-.21h1l1.39-2.06Z" transform="translate(-7.28 -7.67)"/><path class="cls-1" d="M45,14.21h1.16L44.92,16c-.41.58-.77,1.11-1.08,1.6s-.57.93-.76,1.3a2.32,2.32,0,0,0-.28.88c0,.31.16.46.48.46a1.92,1.92,0,0,0,.95-.36,7.79,7.79,0,0,0,1.25-1,15.77,15.77,0,0,0,1.39-1.49c.47-.57.92-1.17,1.35-1.81l.11,0c-.32.48-.7,1-1.13,1.57a18.92,18.92,0,0,1-1.36,1.57A10.17,10.17,0,0,1,44.42,20a2.46,2.46,0,0,1-1.34.49,1,1,0,0,1-.75-.26.87.87,0,0,1-.24-.61,1.62,1.62,0,0,1,.08-.49c0-.16.11-.33.17-.49l0,0c-.15.17-.34.36-.57.58a7.39,7.39,0,0,1-.75.61,5,5,0,0,1-.83.48,1.94,1.94,0,0,1-.82.2,1,1,0,0,1-.92-.41,1.64,1.64,0,0,1-.27-.93,3.47,3.47,0,0,1,.47-1.6,7.7,7.7,0,0,1,1.17-1.66,7.54,7.54,0,0,1,1.55-1.29,3,3,0,0,1,1.58-.51,1.72,1.72,0,0,1,.62.1,1.2,1.2,0,0,1,.44.26,1.33,1.33,0,0,1,.28.39,3.26,3.26,0,0,1,.15.44h0Zm-5.81,5a1,1,0,0,0,.17.63.55.55,0,0,0,.47.22,1.51,1.51,0,0,0,.71-.22,5.14,5.14,0,0,0,.85-.6,7.87,7.87,0,0,0,.88-.86,7.24,7.24,0,0,0,.78-1,6.82,6.82,0,0,0,.55-1.12,3.13,3.13,0,0,0,.21-1.08.81.81,0,0,0-.23-.62.77.77,0,0,0-.57-.22,2.21,2.21,0,0,0-1.19.46,6.28,6.28,0,0,0-1.24,1.19,7.59,7.59,0,0,0-1,1.59A3.92,3.92,0,0,0,39.21,19.19Z" transform="translate(-7.28 -7.67)"/><path class="cls-1" d="M50.16,14.21,48.82,16c-.42.57-.8,1.09-1.13,1.56a12.62,12.62,0,0,0-.79,1.23,1.86,1.86,0,0,0-.3.83.54.54,0,0,0,.15.42.49.49,0,0,0,.37.13,1.64,1.64,0,0,0,.74-.21,5.81,5.81,0,0,0,.81-.55c.28-.23.55-.48.82-.75s.52-.54.75-.81.43-.51.6-.73.3-.41.38-.54l1.57-2.38H54l-1.62,2.23c-.45.61-.81,1.13-1.09,1.56a7.2,7.2,0,0,0-.59,1,1.72,1.72,0,0,0-.18.7.56.56,0,0,0,.12.36.46.46,0,0,0,.36.15,1.73,1.73,0,0,0,.82-.25,6.58,6.58,0,0,0,1-.68,10.71,10.71,0,0,0,1-.94c.33-.35.64-.7.93-1s.55-.67.79-1,.42-.55.55-.74l.18.06-.57.77c-.24.31-.51.65-.8,1s-.61.71-.94,1.07a10.26,10.26,0,0,1-1,1,6.71,6.71,0,0,1-1,.7,2,2,0,0,1-1,.28,1.14,1.14,0,0,1-.79-.28,1,1,0,0,1-.29-.74,2.25,2.25,0,0,1,.11-.68c.08-.22.14-.36.17-.42l0,0q-.37.42-.78.81a9.7,9.7,0,0,1-.82.69,4.62,4.62,0,0,1-.83.47,2.06,2.06,0,0,1-.82.18,1.1,1.1,0,0,1-.82-.26.84.84,0,0,1-.25-.61,2.26,2.26,0,0,1,.24-1,8.21,8.21,0,0,1,.67-1.16c.28-.43.62-.9,1-1.44s.83-1.14,1.3-1.83Z" transform="translate(-7.28 -7.67)"/><path class="cls-1" d="M57.87,14.21,55.61,17.5l0,0c.16-.2.37-.43.63-.7s.53-.54.83-.82.62-.55,1-.82.66-.52,1-.73a1.06,1.06,0,0,1,.2-.28.56.56,0,0,1,.42-.11H60l.31,0a5.18,5.18,0,0,0-.59.74,1.7,1.7,0,0,0-.28.95.94.94,0,0,0,.2.64.64.64,0,0,0,.51.23,1.42,1.42,0,0,0,.53-.1,2.27,2.27,0,0,0,.48-.27,5.3,5.3,0,0,0,.45-.34l.37-.32.11.07-.41.39a5,5,0,0,1-.5.38,3.06,3.06,0,0,1-.57.29,1.67,1.67,0,0,1-.62.12,1.23,1.23,0,0,1-.91-.35,1.27,1.27,0,0,1-.35-1,1.39,1.39,0,0,1,.2-.76l0,0a13.46,13.46,0,0,0-1.6,1.31A26.46,26.46,0,0,0,55.45,18a6.43,6.43,0,0,0-.74,1,11.47,11.47,0,0,0-.66,1.31H52.89c.64-1,1.28-2,1.92-3l2-3.08Z" transform="translate(-7.28 -7.67)"/><path class="cls-1" d="M66.72,14.21h1.15L66.61,16c-.4.58-.76,1.11-1.07,1.6s-.57.93-.76,1.3a2.15,2.15,0,0,0-.28.88c0,.31.16.46.48.46a2,2,0,0,0,1-.36,8.26,8.26,0,0,0,1.25-1,17.19,17.19,0,0,0,1.39-1.49c.47-.57.92-1.17,1.35-1.81l.1,0c-.32.48-.69,1-1.13,1.57a18.82,18.82,0,0,1-1.35,1.57A9.68,9.68,0,0,1,66.11,20a2.4,2.4,0,0,1-1.33.49,1,1,0,0,1-.75-.26.87.87,0,0,1-.24-.61,1.36,1.36,0,0,1,.08-.49l.16-.49,0,0c-.16.17-.35.36-.58.58a7.27,7.27,0,0,1-.74.61,5.39,5.39,0,0,1-.83.48,2,2,0,0,1-.82.2,1,1,0,0,1-.92-.41,1.64,1.64,0,0,1-.27-.93,3.45,3.45,0,0,1,.46-1.6,7.75,7.75,0,0,1,1.18-1.66A7.49,7.49,0,0,1,63,14.58a3.08,3.08,0,0,1,1.58-.51,1.74,1.74,0,0,1,.63.1,1.28,1.28,0,0,1,.44.26,1.14,1.14,0,0,1,.27.39,2.32,2.32,0,0,1,.16.44h0Zm-5.81,5a1,1,0,0,0,.17.63.55.55,0,0,0,.47.22,1.54,1.54,0,0,0,.71-.22,5.6,5.6,0,0,0,.85-.6,7.87,7.87,0,0,0,.88-.86,6.51,6.51,0,0,0,.77-1,6.11,6.11,0,0,0,.55-1.12,2.93,2.93,0,0,0,.22-1.08.81.81,0,0,0-.23-.62.8.8,0,0,0-.57-.22,2.18,2.18,0,0,0-1.19.46,6.32,6.32,0,0,0-1.25,1.19,7.16,7.16,0,0,0-1,1.59A3.92,3.92,0,0,0,60.91,19.19Z" transform="translate(-7.28 -7.67)"/><path class="cls-1" d="M71.64,14.21l-2.35,3.25,0,0,.87-1a12.66,12.66,0,0,1,1.07-1.13,7.53,7.53,0,0,1,1.18-.9,2.38,2.38,0,0,1,1.22-.36,1.12,1.12,0,0,1,.82.29,1,1,0,0,1,.3.76,1.46,1.46,0,0,1-.21.67,8.22,8.22,0,0,1-.51.84c-.2.29-.42.6-.65.9l-.66.88c-.2.28-.37.54-.51.77a1.25,1.25,0,0,0-.2.58c0,.33.16.49.5.49a2.27,2.27,0,0,0,1.2-.38,7.65,7.65,0,0,0,1.53-1.29c.24-.23.48-.5.72-.78s.48-.56.7-.84.43-.54.62-.79.33-.46.43-.63l.13.08c-.24.35-.55.77-.92,1.27a17.91,17.91,0,0,1-1.22,1.44c-.26.29-.52.56-.8.82a8.27,8.27,0,0,1-.81.69,4.48,4.48,0,0,1-.81.46,2.08,2.08,0,0,1-.79.17,1.25,1.25,0,0,1-.85-.29,1,1,0,0,1-.34-.78,2.12,2.12,0,0,1,.42-1.16c.29-.42.6-.85.95-1.27s.65-.84.94-1.23a1.87,1.87,0,0,0,.42-1,.36.36,0,0,0-.14-.32.6.6,0,0,0-.37-.11,2,2,0,0,0-1,.33,6.82,6.82,0,0,0-1.12.87c-.39.36-.77.77-1.16,1.21s-.74.89-1.07,1.33-.63.87-.89,1.28a10.76,10.76,0,0,0-.59,1h-1.1c.31-.52.64-1.05,1-1.59l1-1.6c.35-.52.68-1,1-1.52s.6-.94.84-1.35Z" transform="translate(-7.28 -7.67)"/><path class="cls-1" d="M80.88,12.15l-1.4,2.06h2.34l-.11.21H79.33c-.47.78-.89,1.44-1.27,2l-.94,1.46a11.29,11.29,0,0,0-.58,1,1.8,1.8,0,0,0-.19.74.51.51,0,0,0,.23.47,1,1,0,0,0,.53.13,2.63,2.63,0,0,0,1.41-.49,10.13,10.13,0,0,0,1.54-1.19,19.09,19.09,0,0,0,1.46-1.52c.46-.53.85-1,1.17-1.43l.11.07c-.4.51-.85,1-1.33,1.6A15.64,15.64,0,0,1,80,18.84,8.75,8.75,0,0,1,78.45,20a2.84,2.84,0,0,1-1.46.47,1.43,1.43,0,0,1-.95-.34,1.16,1.16,0,0,1-.4-.94,2.18,2.18,0,0,1,.23-.92,8.11,8.11,0,0,1,.6-1.09c.25-.39.53-.82.85-1.28s.63-1,1-1.48h-1l.1-.21h1l1.38-2.06Z" transform="translate(-7.28 -7.67)"/><path class="cls-1" d="M104.64,25.83,88,25.8h-.88V22.47c0-.94.47-1.49,1.23-1.47s1.14.54,1.16,1.47c0,.7,0,1.4,0,2.1h1.24c0-.77,0-1.49,0-2.22S91.27,21,92,21s1.16.53,1.17,1.38,0,1.44,0,2.19h1.12c0-.09.08-.13.08-.18,0-.68,0-1.36,0-2,0-.85.5-1.37,1.21-1.35s1.17.52,1.18,1.38,0,1.45,0,2.2H98c0-.82,0-1.45,0-2.22a1.26,1.26,0,0,1,1.2-1.28c.81,0,1.1.79,1.1,1.37s0,1.45,0,2.12h1.19a7.22,7.22,0,0,1,.5-3.42c-.36-.57-.8-1.37-.8-1.37H87.16V16.45c0-1,.46-1.5,1.22-1.48s1.16.55,1.17,1.47v2.09c.47,0,.86,0,1.19,0,0-.58,0-1.53.05-2.19,0-.9.47-1.42,1.22-1.4s1.15.52,1.16,1.4v2.16h1.22c0-.76,0-1.46,0-2.16,0-.89.5-1.42,1.24-1.4s1.15.54,1.16,1.4,0,1.44,0,2.17H98a25.86,25.86,0,0,1,.35-3.88c-.27-.49-.49-.92-.49-.92l-10.65,0V12.53H97.29c-.79-1.46-1.51-2.75-2.69-4.84-2.12,0-8.09,0-8.6,0V31.79c12.07,0,7.24,0,19.29,0,0-1.61.28-4.32.28-4.32S104.85,26.26,104.64,25.83ZM89.52,30.61H87.19a25.21,25.21,0,0,1,0-2.61,1.06,1.06,0,0,1,1.18-1,1.08,1.08,0,0,1,1.12,1C89.56,28.88,89.52,29.71,89.52,30.61Zm3.67,0H90.83c0-.87,0-1.72,0-2.55A1.11,1.11,0,0,1,92,27a1.12,1.12,0,0,1,1.18,1.06C93.23,28.9,93.19,29.73,93.19,30.6Zm3.63,0H94.47c0-.89-.06-1.76,0-2.62a1.07,1.07,0,0,1,1.18-1,1.15,1.15,0,0,1,1.14,1.11C96.85,28.93,96.82,29.73,96.82,30.61Zm3.62,0H98.09c0-.85,0-1.7,0-2.54a1.09,1.09,0,0,1,1.14-1,1.13,1.13,0,0,1,1.19,1.06C100.48,28.91,100.44,29.73,100.44,30.59Zm3.59,0h-2.29c0-.92-.06-1.83,0-2.73a1,1,0,0,1,1.11-.86A1,1,0,0,1,104,28C104.09,28.83,104,29.72,104,30.62Z" transform="translate(-7.28 -7.67)"/></svg>
